<svg xmlns="http://www.w3.org/2000/svg" width="117" height="225" viewBox="0 0 117 225" fill="none"><path d="M78.7755 184.968C63.193 165.422 43.4913 164.128 32.9458 165.15L35.2502 175.953C43.7129 180.639 54.803 190.142 69.7178 211.145C80.1094 225.776 96.3418 206.989 78.7755 184.968Z" fill="#F03C1F"></path><path d="M34.1363 166.031L36.1167 175.315C46.6425 181.269 57.8985 192.809 70.5191 210.577C72.9089 213.94 75.7494 215.62 78.5177 215.306C81.0088 215.027 83.2385 213.072 84.4766 210.078C86.6371 204.866 86.0758 195.691 78.011 185.576C63.2087 167.018 44.5954 165.243 34.1363 166.031ZM34.2913 176.158L31.9869 165.355C31.9288 165.083 31.9883 164.797 32.1523 164.57C32.3211 164.345 32.5708 164.2 32.8504 164.176C43.4588 163.148 63.6331 164.402 79.5431 184.355C88.1379 195.131 88.664 205.099 86.2892 210.83C84.7719 214.489 81.9479 216.892 78.7372 217.256C75.2284 217.651 71.7411 215.685 68.9206 211.712C56.3179 193.972 45.148 182.554 34.7759 176.812C34.5256 176.673 34.3502 176.434 34.2913 176.158Z" fill="#1C1A19"></path><path d="M52.3063 43.2078C57.673 11.4591 42.7041 3.73853 34.5225 10.0144C27.5164 15.39 25.7457 39.5756 20.8842 53.4828C18.4691 60.397 15.3738 66.5662 12.8673 71.0221L15.2101 82.0053C30.1674 80.6471 49.2594 61.2225 52.3063 43.2078Z" fill="#FAB20B"></path><path d="M13.9033 71.1781L15.9835 80.9303C22.6709 80.001 30.6495 75.292 37.5204 68.1731C44.8931 60.5302 49.9296 51.3729 51.3375 43.0457C55.4396 18.7918 47.29 11.8137 44.6956 10.2541C41.5848 8.37972 38.0028 8.58248 35.1217 10.7928C30.9479 13.9925 28.5969 25.099 26.3206 35.8406C24.9848 42.1557 23.5995 48.6898 21.8115 53.8063C19.3533 60.838 16.1897 67.0819 13.9033 71.1781ZM14.2514 82.21L11.9085 71.2267C11.8586 70.9928 11.8949 70.7485 12.0115 70.5432C14.2695 66.5212 17.4856 60.242 19.961 53.1586C21.7065 48.1634 23.0773 41.6925 24.4045 35.4314C26.8593 23.8337 29.1821 12.8777 33.9281 9.23917C37.4224 6.55725 41.9361 6.30409 45.7088 8.57455C53.3504 13.1712 56.1774 26.1801 53.2716 43.3708C50.1977 61.5597 31.0344 81.5528 15.2981 82.981C14.8026 83.0265 14.3553 82.697 14.2514 82.21Z" fill="#1C1A19"></path><path d="M93.2118 162.499C97.9256 155.419 77.3094 124.702 43.4345 128.893C36.3826 129.768 30.6619 131.168 26.0392 132.772L29.4348 148.691C35.8104 149.251 43.0645 150.47 50.4918 152.09C77.097 157.885 86.0036 173.338 93.2118 162.499Z" fill="#FCF6E7"></path><path d="M27.1798 133.419L30.2433 147.781C36.2028 148.346 43.0794 149.469 50.7004 151.131C62.1614 153.63 70.4779 157.95 76.545 161.107C85.6102 165.816 88.9245 167.178 92.3988 161.959C93.4215 160.417 92.9931 156.491 89.718 151.196C83.9539 141.865 67.7433 126.875 43.5538 129.866C37.5333 130.613 32.0292 131.807 27.1798 133.419ZM28.4759 148.895L25.0803 132.977C24.9772 132.493 25.2512 132.01 25.7176 131.846C30.8962 130.048 36.8138 128.726 43.3112 127.921C68.4854 124.808 85.378 140.438 91.3872 150.166C94.7675 155.636 95.7542 160.449 94.0295 163.042C89.4049 169.995 83.9295 167.149 75.6401 162.843C69.6683 159.739 61.4874 155.49 50.2832 153.048C42.4307 151.335 35.3872 150.2 29.3503 149.667C28.9215 149.63 28.5659 149.317 28.4759 148.895Z" fill="#1C1A19"></path><path d="M38.6035 118.729C75.846 119.666 94.4546 99.0092 89.8337 88.1752C84.7329 76.2005 60.5245 71.6015 37.5539 86.4728C31.6021 90.3244 24.8337 94.0135 18.389 96.9078L22.7581 117.39C27.4784 118.087 32.7656 118.583 38.6035 118.729Z" fill="#FAB20B"></path><path d="M19.5126 97.4742L23.5749 116.518C28.4299 117.207 33.4905 117.619 38.6275 117.75C64.6126 118.402 80.7602 108.43 86.6929 99.6948C89.421 95.6768 90.2393 91.6171 88.9335 88.5598C87.2057 84.502 83.0857 81.2993 77.3334 79.5433C68.3763 76.807 53.3609 77.4038 38.0908 87.2966C32.3222 91.029 25.7548 94.6271 19.5126 97.4742ZM21.7994 117.595L17.4303 97.1124C17.3338 96.6599 17.565 96.2016 17.9857 96.0117C24.3539 93.1538 31.1162 89.474 37.0213 85.6484C43.9488 81.1636 51.5523 78.1184 59.0037 76.8416C65.7935 75.678 72.3271 75.9642 77.908 77.6686C84.2225 79.5973 88.779 83.1921 90.7383 87.79C92.3297 91.5281 91.4708 96.1497 88.3154 100.796C84.7023 106.118 78.4122 110.883 70.6054 114.216C61.4942 118.109 50.4177 120.006 38.5802 119.709C33.1215 119.574 27.7511 119.12 22.6161 118.359C22.2107 118.301 21.8853 117.997 21.7994 117.595Z" fill="#1C1A19"></path></svg>