<svg xmlns="http://www.w3.org/2000/svg" width="221" height="287" viewBox="0 0 221 287" fill="none"><path d="M95.705 129.822C97.956 136.337 99.2228 139.357 91.2407 144.458C83.2637 149.563 75.8998 146.834 80.4702 139.879C85.0405 132.924 93.7738 124.236 95.705 129.822Z" fill="#1C1A19"></path><path d="M96.1113 134.792C95.8579 133.588 95.3907 132.234 94.8251 130.603L94.6776 130.176C94.3465 129.215 93.8863 129.161 93.6899 129.136C91.2982 128.835 85.5447 134.138 81.3775 140.475C80.0344 142.517 79.7837 144.218 80.6908 145.128C82.1149 146.574 86.2319 146.374 90.6576 143.546C95.8545 140.222 96.808 138.102 96.1113 134.792ZM78.0747 144.648C77.8124 143.402 78.0181 141.635 79.5628 139.284C82.874 134.242 89.7111 126.446 93.9599 126.978C94.8727 127.092 96.094 127.617 96.7326 129.468L96.8792 129.89C99.0449 136.147 100.355 139.923 91.8289 145.374C86.8753 148.545 81.5405 149.081 79.1421 146.658C78.7863 146.298 78.2834 145.639 78.0747 144.648Z" fill="#1C1A19"></path><path d="M105.831 88.3127C107.646 93.0537 98.0993 105.351 94.1412 104.469C90.184 103.592 102.486 79.6007 105.831 88.3127Z" fill="#FCF6E7"></path><path d="M104.815 88.7024C104.612 88.1806 104.279 87.5474 103.824 87.5013C102.925 87.4097 100.994 88.9171 98.7155 92.4883C95.5432 97.4511 94.1346 102.391 94.4905 103.427C95.4678 103.51 97.6362 102.18 100.054 99.3759C103.49 95.3914 105.582 90.7018 104.815 88.7024ZM92.3599 103.818C92.3008 103.537 92.2721 103.211 92.2815 102.833C92.383 98.4179 98.4057 86.2033 103.216 85.3708C104.142 85.2109 105.847 85.3293 106.846 87.9235C108.106 91.207 105.06 96.8988 101.704 100.795C100.296 102.427 96.718 106.157 93.9069 105.531C93.4924 105.441 92.6285 105.094 92.3599 103.818Z" fill="#1C1A19"></path><path d="M67.7068 268.689C69.5264 273.429 59.9747 285.724 56.0176 284.846C52.0647 283.968 64.3618 259.975 67.7068 268.689Z" fill="#FAB20B"></path><path d="M66.6907 269.077C66.4919 268.554 66.1548 267.923 65.7007 267.877C64.8017 267.786 62.8741 269.289 60.5946 272.856C57.4224 277.82 55.9984 282.771 56.3661 283.8C57.3476 283.882 59.5123 282.556 61.9309 279.754C65.366 275.766 67.4596 271.083 66.6907 269.077ZM54.2396 284.19C54.1814 283.913 54.1483 283.587 54.1573 283.208C54.2632 278.792 60.2818 266.578 65.0925 265.748C66.0179 265.584 67.7272 265.704 68.722 268.298C69.9819 271.583 66.9367 277.275 63.5799 281.171C62.1729 282.804 58.5936 286.53 55.7825 285.904C55.3681 285.814 54.5091 285.47 54.2396 284.19Z" fill="#1C1A19"></path><path d="M77.0521 120.052C76.118 128.787 64.4337 138.972 61.4386 131.899C58.4393 124.827 78.8287 103.413 77.0521 120.052Z" fill="#5CC8BF"></path><path d="M75.9206 116.47C75.7666 115.738 75.4948 115.249 75.1219 115.061C74.2744 114.644 72.1628 115.399 69.3631 118.036C65.1051 122.042 61.2416 128.64 62.4383 131.476C63.0086 132.813 63.9025 133.344 65.2641 133.142C69.302 132.545 75.3338 125.905 75.9707 119.938C76.1236 118.51 76.1006 117.325 75.9206 116.47ZM60.1662 131.447C59.2305 127.002 63.935 120.156 67.8702 116.454C69.7989 114.64 73.4254 111.793 76.09 113.115C77.8521 113.993 78.5376 116.363 78.134 120.166C77.4329 126.716 70.9828 134.493 65.5833 135.292C63.222 135.642 61.3959 134.587 60.4394 132.323C60.3189 132.046 60.2307 131.754 60.1662 131.447Z" fill="#1C1A19"></path><path d="M136.217 96.4701C132.378 103.986 123.665 108.53 122.457 102.791C121.249 97.0527 142.09 84.9614 136.217 96.4701Z" fill="#F03C1F"></path><path d="M136.156 92.9958C136.142 92.9278 136.12 92.8866 136.103 92.8685C135.885 92.6584 134.345 92.6023 131.304 94.2816C126.837 96.7473 123.127 100.696 123.521 102.568C123.812 103.95 124.55 104.204 125.08 104.274C127.699 104.62 132.607 101.148 135.246 95.9768C136.162 94.1822 136.222 93.3072 136.156 92.9958ZM121.394 103.015C120.605 99.2675 126.409 94.5011 130.254 92.378C132.715 91.0201 135.985 89.732 137.614 91.3066C139.26 92.8975 137.696 95.9589 137.183 96.9642C134.304 102.604 128.631 106.938 124.791 106.427C123.013 106.193 121.807 104.981 121.394 103.015Z" fill="#1C1A19"></path><path d="M149.907 144.14C154.228 150.165 143.729 168.555 135.641 165.975C127.554 163.399 141.364 132.238 149.907 144.14Z" fill="#F03C1F"></path><path d="M149.024 144.775C147.629 142.834 146.114 142.162 144.383 142.722C139.494 144.297 134.268 154.891 134.28 161.157C134.28 162.636 134.575 164.498 135.97 164.942C139.185 165.966 142.947 162.731 145.394 159.364C149.309 153.986 150.935 147.438 149.024 144.775ZM132.305 163.256C132.178 162.652 132.108 161.961 132.104 161.162C132.093 153.998 137.833 142.55 143.716 140.65C145.576 140.05 148.315 140.059 150.787 143.506C153.635 147.474 151.043 155.296 147.151 160.642C143.402 165.799 138.976 168.183 135.313 167.013C134.341 166.702 132.843 165.813 132.305 163.256Z" fill="#1C1A19"></path><path d="M110.122 187.571C102.999 196.014 97.5632 181.653 103.719 178.643C109.876 175.636 119.784 176.119 110.122 187.571Z" fill="#FAB20B"></path><path d="M113.019 179.568C112.962 179.3 112.863 179.126 112.784 179.023C111.72 177.661 107.625 177.945 104.196 179.622C102.077 180.659 102.089 183.308 102.143 184.097C102.305 186.404 103.544 188.511 105.027 188.994C106.631 189.518 108.23 188.124 109.294 186.865C112.886 182.609 113.217 180.509 113.019 179.568ZM100.16 185.589C100.069 185.155 100.006 184.706 99.9754 184.246C99.767 181.229 100.987 178.769 103.243 177.668C107.187 175.74 112.472 175.09 114.497 177.685C116.214 179.887 115.022 183.447 110.954 188.271C108.251 191.474 105.873 191.557 104.351 191.06C102.333 190.401 100.718 188.239 100.16 185.589Z" fill="#1C1A19"></path><path d="M141.958 41.3297C141.847 53.615 131.554 74.3375 122.842 61.6183C114.131 48.899 142.057 31.0354 141.958 41.3297Z" fill="#F03C1F"></path><path d="M140.809 40.5782C140.655 39.8474 140.253 39.6055 139.889 39.4817C137.155 38.5462 129.815 42.4516 125.465 48.1732C123.401 50.89 120.429 56.1709 123.74 61.0042C125.696 63.8625 127.772 64.9824 129.91 64.3315C135.459 62.6414 140.792 49.9342 140.872 41.3194C140.877 41.0277 140.852 40.7837 140.809 40.5782ZM120.285 58.3981C119.534 54.8277 120.697 50.8534 123.735 46.858C128.451 40.6574 136.644 36.0728 140.594 37.4244C141.518 37.7425 143.074 38.6723 143.049 41.3387C142.968 49.9263 137.68 64.2381 130.543 66.4107C128.38 67.0694 125.132 66.8797 121.945 62.2327C121.118 61.026 120.568 59.7403 120.285 58.3981Z" fill="#1C1A19"></path><path d="M76.8581 83.2828C73.6907 90.6333 66.0936 96.6767 65.8148 88.1746C65.5363 79.6738 80.9107 73.8681 76.8581 83.2828Z" fill="#5CC8BF"></path><path d="M76.4125 80.2169C76.3733 80.0306 76.3049 79.8957 76.2198 79.8079C75.8384 79.4315 74.6556 79.3642 72.9458 80.1075C69.8559 81.4504 66.786 84.6408 66.9002 88.1388C66.961 89.9688 67.3883 91.0912 68.0685 91.2195C69.8088 91.5498 73.7464 87.7533 75.8566 82.8533C76.4095 81.5748 76.5172 80.7142 76.4125 80.2169ZM64.9396 90.0975C64.826 89.5576 64.7523 88.933 64.729 88.2102C64.5759 83.5351 68.4299 79.6999 72.0775 78.1142C74.52 77.0524 76.5892 77.1086 77.7531 78.2684C78.5345 79.0462 79.1863 80.6229 77.8548 83.7126C75.6319 88.879 71.0017 93.9873 67.6607 93.3564C66.6333 93.1618 65.4264 92.41 64.9396 90.0975Z" fill="#1C1A19"></path><path d="M85.485 181.628C82.4782 189.635 72.0077 196.446 72.7936 189.435C73.5829 182.418 91.7696 164.894 85.485 181.628Z" fill="#FAB20B"></path><path d="M85.6267 175.694C85.4919 175.687 84.9567 175.719 83.7521 176.519C79.9491 179.035 74.2633 186.073 73.8761 189.553C73.8077 190.136 73.7758 191.125 74.281 191.245C76.1249 191.688 82.2552 187.141 84.4672 181.247C86.0561 177.016 85.7114 175.885 85.6267 175.694ZM71.7644 191.153C71.6605 190.659 71.6305 190.053 71.7153 189.315C72.2679 184.383 80.299 175.145 84.4234 173.735C85.8784 173.237 86.7204 173.691 87.1736 174.155C88.3085 175.325 88.1034 177.749 86.5027 182.009C84.1853 188.183 77.4014 194.227 73.7743 193.355C73.2136 193.225 72.102 192.757 71.7644 191.153Z" fill="#1C1A19"></path><path d="M166.621 83.2228C169.451 85.3331 165.046 97.2524 162.017 93.6074C158.985 89.9675 158.566 77.2126 166.621 83.2228Z" fill="#F03C1F"></path><path d="M166.358 84.8856C166.273 84.4823 166.132 84.2156 165.969 84.0944C164.667 83.1228 162.924 82.1667 162.015 83.127C160.335 84.897 161.098 90.8022 162.854 92.916C163.133 93.2483 163.272 93.2145 163.331 93.1977C164.221 92.9747 165.684 90.53 166.242 87.7137C166.491 86.468 166.49 85.5127 166.358 84.8856ZM159.265 89.7797C158.635 86.7869 158.801 83.3535 160.439 81.6313C161.344 80.6744 163.441 79.4941 167.273 82.3513C168.977 83.6258 168.697 86.522 168.375 88.1376C167.868 90.6878 166.251 94.7021 163.868 95.3059C163.299 95.4524 162.187 95.513 161.182 94.3031C160.344 93.2978 159.653 91.6217 159.265 89.7797Z" fill="#1C1A19"></path><path d="M93.9885 235.201C96.8196 237.315 92.4132 249.229 89.3852 245.588C86.3571 241.947 85.9343 229.193 93.9885 235.201Z" fill="#FAB20B"></path><path d="M93.3371 236.075C92.0345 235.101 90.2921 234.148 89.3832 235.108C87.7031 236.879 88.4658 242.783 90.2206 244.892C90.5003 245.229 90.6398 245.195 90.6985 245.178C91.584 244.952 93.0519 242.51 93.6104 239.696C94.0155 237.652 93.7529 236.383 93.3371 236.075ZM86.6331 241.76C86.0028 238.765 86.1697 235.336 87.8059 233.61C88.7114 232.655 90.8094 231.476 94.6405 234.33C96.3487 235.606 96.0613 238.505 95.7432 240.118C95.2358 242.668 93.6181 246.678 91.2356 247.286C90.6656 247.428 89.5551 247.493 88.5495 246.283C87.7113 245.278 87.0208 243.602 86.6331 241.76Z" fill="#1C1A19"></path><path d="M83.0103 22.9188C84.7647 29.4381 77.0372 44.721 71.1198 41.687C65.198 38.6535 79.5306 9.9544 83.0103 22.9188Z" fill="#5CC8BF"></path><path d="M81.9633 23.2002C81.7046 22.2458 81.1324 20.6461 80.1936 20.6615C77.6123 20.7055 72.7435 28.5433 71.2172 35.1197C70.5235 38.0938 70.6774 40.2392 71.614 40.7204C72.7046 41.2785 73.9866 40.9727 75.4219 39.8118C79.5611 36.4661 83.0889 27.4716 81.9633 23.2002ZM68.7701 39.9596C68.5113 38.7302 68.5416 37.0165 69.0965 34.6283C70.5805 28.2523 75.7483 18.5629 80.1539 18.4886C81.4245 18.4664 83.1278 19.1696 84.062 22.6368C85.4354 27.7263 81.6208 37.5964 76.7865 41.5025C74.0906 43.683 71.9461 43.3325 70.6215 42.6548C69.8589 42.2618 69.0909 41.4839 68.7701 39.9596Z" fill="#1C1A19"></path><path d="M120.026 15.9828C117.847 21.8832 110.541 28.2524 109.16 21.6956C107.78 15.1379 122.431 9.48456 120.026 15.9828Z" fill="#FCF6E7"></path><path d="M119.194 14.5379C119.178 14.4626 119.148 14.4067 119.106 14.373C118.589 13.9446 116.421 14.221 114.064 15.6457C111.892 16.9589 109.742 19.1796 110.224 21.4717C110.48 22.6879 110.944 23.3295 111.603 23.3778C113.53 23.5191 117.466 19.776 119.01 15.6056C119.177 15.1541 119.241 14.7625 119.194 14.5379ZM108.097 21.9195C107.38 18.5141 110.128 15.4851 112.939 13.7851C115.489 12.2438 118.812 11.3099 120.49 12.6972C121.038 13.1483 121.838 14.2243 121.048 16.3596C119.365 20.9053 114.903 25.7997 111.442 25.5464C110.462 25.474 108.726 24.9071 108.097 21.9195Z" fill="#1C1A19"></path><path d="M172.022 26.4419C174.527 32.6818 169.725 40.6221 164.7 38.255C159.675 35.8879 167.265 14.6014 172.022 26.4419Z" fill="#FCF6E7"></path><path d="M171.013 26.8472C170.246 24.9392 169.375 23.8919 168.623 23.9733C167.234 24.1241 165.06 27.6306 164.338 31.9265C163.877 34.6744 164.208 36.8225 165.164 37.2717C166.852 38.0678 168.245 37.2557 169.117 36.4339C171.166 34.5024 172.435 30.3893 171.013 26.8472ZM162.144 36.1782C161.881 34.9258 161.89 33.3666 162.194 31.5669C162.947 27.0819 165.374 22.1387 168.389 21.8124C170.261 21.6094 171.822 23.0308 173.03 26.0369C174.864 30.6048 173.151 35.6176 170.608 38.0151C168.71 39.8057 166.387 40.2514 164.237 39.2385C163.167 38.7351 162.46 37.6765 162.144 36.1782Z" fill="#1C1A19"></path><path d="M50.7303 63.1C52.9288 69.4708 45.8257 86.3899 39.7644 79.1049C33.7031 71.8199 46.868 51.9279 50.7303 63.1Z" fill="#5CC8BF"></path><path d="M49.8958 64.1596C49.8437 63.912 49.7765 63.6774 49.7031 63.4552C49.703 63.4548 49.703 63.4548 49.703 63.4548C49.3078 62.3158 48.5961 60.94 47.4323 60.8576C45.6778 60.7342 43.0928 63.2095 41.2774 66.7444C39.309 70.5866 38.3335 75.6841 40.6002 78.41C42.1471 80.2706 43.3944 79.8841 44.1968 79.4318C47.7162 77.4485 50.8609 68.7447 49.8958 64.1596ZM37.3412 76.4163C36.6123 72.953 37.7789 68.806 39.3446 65.7523C41.0899 62.3489 44.2964 58.4567 47.5848 58.69C48.8794 58.7818 50.6561 59.5597 51.7576 62.7451C53.5739 67.9964 49.8104 78.7634 45.2619 81.3258C43.975 82.0516 41.4393 82.8186 38.9288 79.8001C38.1083 78.8155 37.603 77.6597 37.3412 76.4163Z" fill="#1C1A19"></path><path d="M42.8589 133.242C43.3687 145.565 32.5875 152.526 30.3115 145.301C28.0347 138.073 42.1285 115.417 42.8589 133.242Z" fill="#5CC8BF"></path><path d="M41.4228 130.155C41.1013 128.627 40.6238 127.879 40.1896 127.695C39.7126 127.498 38.8629 127.895 37.9122 128.761C34.2532 132.108 30.1652 141.227 31.3487 144.972C31.8712 146.63 32.8659 147.345 34.3053 147.091C37.6398 146.509 42.0913 140.974 41.7755 133.288C41.7227 132.002 41.5938 130.967 41.4228 130.155ZM29.1363 145.1C28.1146 140.246 32.2914 130.957 36.4465 127.159C38.5448 125.243 40.0948 125.303 41.0249 125.689C42.8121 126.433 43.7687 128.888 43.9467 133.195C44.3003 141.757 39.442 148.399 34.6807 149.233C32.1471 149.673 30.1219 148.327 29.2738 145.626C29.22 145.455 29.1739 145.279 29.1363 145.1Z" fill="#1C1A19"></path><path d="M52.3953 192.44C56.3701 198.214 50.4197 229.667 41.1577 217.92C31.8956 206.173 42.6156 178.234 52.3953 192.44Z" fill="#FAB20B"></path><path d="M52.2683 195.088C52.0892 194.237 51.8324 193.544 51.4982 193.055C50.3343 191.367 48.5057 189.393 46.4051 189.609C44.369 189.815 42.2475 192.066 40.7372 195.635C38.0637 201.933 37.6026 211.649 42.0156 217.246C44.5386 220.451 46.07 219.325 46.6465 218.897C50.9435 215.731 53.5693 201.269 52.2683 195.088ZM37.0393 211.274C35.8788 205.761 36.728 199.514 38.7324 194.787C40.5886 190.411 43.3051 187.738 46.1856 187.447C47.9302 187.271 50.5792 187.886 53.2922 191.824C56.6854 196.757 53.8596 216.286 47.9346 220.647C46.516 221.696 43.637 222.818 40.3038 218.592C38.666 216.512 37.6088 213.98 37.0393 211.274Z" fill="#1C1A19"></path></svg>