<svg xmlns="http://www.w3.org/2000/svg" width="120" height="119" viewBox="0 0 120 119" fill="none"><path d="M117.497 1.17902C116.798 0.82222 115.963 0.886742 115.326 1.34223C109.918 5.21767 104.548 9.29807 99.3607 13.4772C99.3265 13.4772 99.2886 13.4772 99.2506 13.4772C85.5205 8.58827 70.652 8.23525 56.2654 7.89364L55.8631 7.88604C55.8214 7.88224 55.7797 7.88226 55.7379 7.88226C54.0302 7.88226 52.5502 8.70594 51.6659 10.1559C50.74 11.6742 50.6679 13.6138 51.48 15.1017C52.2276 16.472 53.6089 17.2805 55.2711 17.3184L56.7397 17.3564C68.0866 17.6183 79.7788 17.8916 90.6437 20.7194C87.103 23.756 83.5813 26.8875 80.1317 30.0645C73.4375 28.698 66.6256 28.3944 60.2008 28.2046C52.9259 27.9882 45.1576 28.0907 36.4558 28.5196C35.268 28.5766 34.1789 29.1535 33.3819 30.1404C32.5015 31.2374 32.1106 32.6759 32.3308 33.9931C32.7406 36.4223 34.8809 38.0317 37.5336 37.8988C45.0172 37.5344 52.4363 37.4434 59.5859 37.6407C63.4226 37.7432 67.4491 37.9026 71.4565 38.3164C67.5857 42.1083 63.7338 46.0331 59.9616 50.0262C48.9753 48.9406 37.989 50.4931 27.3518 51.9962C25.0142 52.3264 22.5929 52.668 20.2287 52.9755C18.5589 53.1918 17.2459 54.1635 16.6311 55.6401C15.967 57.2267 16.2326 59.1549 17.3028 60.5593C18.3312 61.9068 19.9099 62.5483 21.6366 62.3281C24.0274 62.0169 26.4524 61.6715 28.8015 61.3374C36.2927 60.2708 43.9964 59.1739 51.6128 59.1208C47.1424 64.1387 42.7099 69.3388 38.3989 74.6415C34.0043 76.3002 29.4049 77.6894 24.9496 79.0331C17.8303 81.1815 10.4682 83.402 3.59555 86.8181C1.17438 88.0252 0.274924 90.7999 1.50448 93.2747C2.67332 95.6261 5.29946 96.5295 7.62196 95.3764C14.1796 92.1132 21.371 89.9458 28.3271 87.8468C31.382 86.9244 34.5242 85.9755 37.6247 84.9355C38.3761 92.9444 37.3932 101.954 34.695 111.757C34.2207 113.475 34.6646 115.184 35.9056 116.444C36.8808 117.431 38.2167 117.982 39.5222 117.982C39.8979 117.982 40.2736 117.936 40.6341 117.842C42.1217 117.455 43.2222 116.324 43.6586 114.74C47.3132 101.473 48.2391 89.9914 46.4821 79.6822C50.5806 74.668 54.7968 69.7374 59.0471 64.9776C60.3525 72.7057 59.7264 81.3447 57.1306 91.7868C56.4817 94.4058 57.6126 96.7607 59.9465 97.6462C61.1988 98.1214 62.6903 98.0155 63.935 97.3631C65.0583 96.7751 65.8362 95.8174 66.1209 94.6639C69.8361 79.7201 70.0334 67.589 66.7243 56.627C70.4623 52.668 74.2761 48.7812 78.1052 45.0348C78.887 52.7895 78.8414 60.5897 78.6555 67.9572C78.6099 69.7184 79.4373 71.2481 80.9173 72.1553C82.4353 73.0814 84.3745 73.1573 85.8621 72.3489C87.2358 71.6011 88.048 70.2194 88.0897 68.5569C88.3857 56.7446 88.2339 46.7998 86.5755 36.9917C90.0289 33.8071 93.5582 30.6718 97.1065 27.6428C99.5694 38.2367 100.218 48.9026 98.9736 58.6804C98.761 60.3543 99.3721 61.8726 100.651 62.8443C102.021 63.8882 103.956 64.1235 105.577 63.4403C107.136 62.7874 108.154 61.4248 108.374 59.7015C109.911 47.6425 108.783 34.2853 105.114 20.9851C109.227 17.6676 113.482 14.3919 117.777 11.2377C118.313 10.8429 118.628 10.2204 118.628 9.55615V3.03893C118.628 2.257 118.191 1.53961 117.497 1.17902Z" fill="#A048AA"></path><path d="M37.6247 83.9866C37.8068 83.9866 37.989 84.0359 38.1446 84.1384C38.3874 84.2978 38.5431 84.5559 38.5696 84.8444C39.3324 92.9672 38.3382 102.107 35.6096 112.009C35.2301 113.391 35.583 114.765 36.5811 115.778C37.3553 116.564 38.4558 117.033 39.5222 117.033C39.822 117.033 40.1142 116.996 40.395 116.924C41.5449 116.624 42.3987 115.736 42.7441 114.488C46.3606 101.347 47.279 90.0142 45.5447 79.8416C45.4991 79.5721 45.5713 79.2951 45.7458 79.0825C49.8444 74.0683 54.0833 69.1111 58.3412 64.3475C58.5841 64.0742 58.9636 63.9641 59.3127 64.0666C59.6619 64.1691 59.9237 64.4614 59.9844 64.8219C61.3164 72.7057 60.7016 81.3485 58.049 92.0145C57.5139 94.1781 58.3905 96.041 60.2842 96.7592C61.2861 97.1395 62.4853 97.0515 63.4947 96.5223C64.3751 96.0623 64.9785 95.3217 65.1987 94.4362C68.8797 79.6291 69.0771 67.7029 65.8173 56.9003C65.7186 56.5739 65.802 56.2208 66.0335 55.9741C69.7753 52.0114 73.6158 48.1018 77.4411 44.3554C77.7029 44.1011 78.0862 44.0176 78.4278 44.1428C78.7731 44.2681 79.0122 44.5756 79.0502 44.9399C79.8471 52.8616 79.7864 60.696 79.6042 67.98C79.5701 69.3958 80.2266 70.6218 81.4144 71.3468C82.6478 72.0984 84.215 72.1667 85.4105 71.5138C86.4768 70.9331 87.1068 69.8475 87.141 68.5304C87.437 56.7598 87.2927 46.9175 85.6382 37.1511C85.585 36.8361 85.6951 36.5134 85.9304 36.2933C89.3876 33.1125 92.9396 29.9582 96.4917 26.9216C96.7421 26.7053 97.0875 26.637 97.4024 26.7394C97.7174 26.8419 97.9566 27.1039 98.0325 27.4265C100.514 38.1115 101.167 48.9596 99.9147 58.8019C99.744 60.1266 100.222 61.3261 101.224 62.089C102.328 62.9317 103.896 63.1177 105.212 62.5673C106.446 62.0473 107.258 60.9617 107.432 59.5838C108.95 47.6691 107.831 34.4106 104.199 21.2395C104.097 20.8751 104.222 20.4841 104.518 20.2488C108.639 16.9237 112.912 13.6328 117.216 10.471C117.508 10.2584 117.679 9.91679 117.679 9.55619V3.03896C117.679 2.61004 117.443 2.21908 117.06 2.02549C116.681 1.82812 116.225 1.86227 115.88 2.11279C110.484 5.97684 105.125 10.0497 99.9527 14.2174C99.7819 14.3578 99.5656 14.4375 99.3417 14.4261H99.2696C99.1633 14.4337 99.0419 14.4109 98.9318 14.373C85.346 9.53343 70.5495 9.18042 56.2426 8.8426L55.7379 8.83122C54.349 8.83122 53.1915 9.47651 52.4781 10.6494C51.7267 11.883 51.6583 13.4506 52.3111 14.6463C52.8955 15.7129 53.9808 16.3391 55.2939 16.3695L56.7626 16.4075C68.1436 16.6732 79.9116 16.9465 90.8828 19.8009C91.2243 19.892 91.49 20.1614 91.5697 20.5069C91.6494 20.8485 91.5279 21.2091 91.2623 21.4406C87.733 24.462 84.2075 27.6011 80.7769 30.7629C80.553 30.9717 80.2418 31.059 79.942 30.9945C73.297 29.6394 66.5307 29.3395 60.1704 29.1535C52.922 28.9372 45.1804 29.0396 36.5014 29.4648C35.5906 29.5103 34.7443 29.962 34.1219 30.7363C33.4085 31.6245 33.0897 32.7822 33.2681 33.8337C33.5944 35.7771 35.3212 37.06 37.4881 36.9499C44.9983 36.5856 52.4439 36.4945 59.6125 36.6918C63.1798 36.7867 67.3883 36.9424 71.5514 37.3751C71.9195 37.413 72.2307 37.6559 72.3521 38.0051C72.4735 38.3506 72.3825 38.7377 72.1168 38.9959C68.2574 42.7764 64.398 46.7088 60.6524 50.6791C60.4474 50.8916 60.159 50.9979 59.8668 50.9714C48.9943 49.8934 38.0611 51.442 27.4847 52.9375L27.4315 52.9451C25.1052 53.2716 22.703 53.6132 20.3502 53.9168C19.0258 54.0876 17.9859 54.8468 17.504 56.0045C16.9727 57.2836 17.189 58.8437 18.0543 59.9824C18.874 61.0528 20.1301 61.5652 21.5152 61.3868C23.8908 61.0794 26.3082 60.734 28.6459 60.3999C36.175 59.3295 43.9281 58.225 51.6052 58.1719C51.9733 58.1795 52.3225 58.3882 52.4781 58.7298C52.6299 59.0714 52.5692 59.4738 52.3225 59.7547C47.8634 64.7536 43.4272 69.9614 39.1351 75.2374C39.0288 75.3703 38.8884 75.469 38.7328 75.5259C34.3117 77.1998 29.6933 78.5929 25.2305 79.9403C18.1415 82.0773 10.8211 84.2864 4.01678 87.6684C2.07757 88.6325 1.36409 90.8606 2.35457 92.8534C3.29571 94.7512 5.33358 95.4535 7.19689 94.5273C13.8304 91.2288 21.0598 89.0463 28.05 86.9396C31.0898 86.0211 34.2358 85.0721 37.3249 84.0359C37.4235 84.0018 37.526 83.9866 37.6247 83.9866ZM39.5222 118.931C37.9359 118.931 36.3724 118.268 35.2301 117.11C33.7425 115.602 33.2149 113.559 33.7804 111.505C36.3116 102.31 37.3211 93.8099 36.7784 86.2147C34.0384 87.1143 31.2795 87.9455 28.6003 88.754C21.6821 90.8416 14.5325 93.0014 8.04319 96.2263C5.23873 97.6193 2.0624 96.5322 0.654485 93.6999C-0.817949 90.7392 0.267342 87.4141 3.17426 85.968C10.119 82.5176 17.5192 80.2819 24.6764 78.126C29.033 76.8088 33.5337 75.45 37.822 73.8406C41.6207 69.1795 45.5295 64.5714 49.4649 60.1152C42.6112 60.3316 35.6741 61.3185 28.9457 62.275C26.5701 62.6129 24.1451 62.9582 21.7581 63.2657C19.6861 63.5352 17.7886 62.7571 16.5476 61.1325C15.2763 59.47 14.9651 57.1698 15.7545 55.2757C16.5059 53.4765 18.0922 52.2923 20.1073 52.0342C22.4488 51.7305 24.8472 51.3927 27.1659 51.0624L27.219 51.0549C37.7575 49.567 48.649 48.0297 59.5898 49.0355C62.7813 45.6649 66.0525 42.3209 69.3351 39.0718C65.9045 38.7871 62.5118 38.6694 59.5632 38.5859C52.4401 38.3923 45.0438 38.4834 37.5792 38.8478C34.437 39.0072 31.8868 37.0714 31.3972 34.1525C31.1278 32.5735 31.5945 30.8502 32.6419 29.5483C33.6096 28.345 34.9493 27.6428 36.4065 27.5707C45.1387 27.1418 52.9296 27.0393 60.2273 27.2557C66.5193 27.4417 73.2098 27.7339 79.8471 29.0397C82.7275 26.3903 85.6761 23.7598 88.6324 21.2015C78.3709 18.8064 67.3731 18.5521 56.7208 18.3053L55.2484 18.2674C53.2408 18.2218 51.5635 17.2311 50.6451 15.5534C49.6774 13.777 49.7571 11.4655 50.8576 9.6625C51.9126 7.92785 53.6925 6.93336 55.7379 6.93336L56.2882 6.94474C70.5989 7.28255 85.3877 7.63558 99.1405 12.4334C104.226 8.35297 109.482 4.35985 114.772 0.567917C115.702 -0.0963364 116.912 -0.183617 117.929 0.336395C118.946 0.860207 119.576 1.89265 119.576 3.03896V9.55619C119.576 10.5165 119.113 11.4313 118.339 12.0006C114.225 15.022 110.142 18.1611 106.192 21.3381C109.763 34.5511 110.84 47.8437 109.315 59.823C109.049 61.8917 107.823 63.5314 105.945 64.3171C104.013 65.1256 101.71 64.8447 100.074 63.5998C98.5182 62.4155 97.7744 60.5783 98.0325 58.559C99.1975 49.4113 98.6738 39.3602 96.5258 29.3889C93.5202 31.9813 90.5222 34.6497 87.5925 37.3447C89.194 47.0921 89.3307 56.9003 89.0385 68.5797C88.9891 70.5914 87.9948 72.2654 86.3175 73.1801C84.5376 74.1518 82.2228 74.0645 80.424 72.9638C78.6441 71.8782 77.6536 70.0449 77.7067 67.9344C77.8737 61.3223 77.9382 54.2584 77.3424 47.1149C74.1357 50.2843 70.929 53.5639 67.7906 56.8813C70.9898 67.8813 70.7468 79.9821 67.043 94.8947C66.69 96.3132 65.7414 97.4883 64.3752 98.2038C62.8952 98.9801 61.1115 99.1034 59.6125 98.5333C56.8081 97.4698 55.4381 94.6677 56.2084 91.559C58.5727 82.0508 59.2824 74.224 58.4057 67.1298C54.7133 71.3013 51.0474 75.6056 47.4877 79.9517C49.1727 90.2913 48.2163 101.76 44.5732 114.992C44.0457 116.912 42.6947 118.285 40.8731 118.76C40.4367 118.873 39.9851 118.931 39.5222 118.931Z" fill="#1C1A19"></path></svg>