<svg xmlns="http://www.w3.org/2000/svg" width="118" height="226" viewBox="0 0 118 226" fill="none"><path d="M77.624 51.3873C69.705 47.8865 66.0577 45.9888 58.8346 55.4413C51.6119 64.8937 54.2601 74.3998 63.4443 69.4076C72.6286 64.4111 84.4162 54.3895 77.624 51.3873Z" fill="#F03C1F"></path><path d="M67.5896 49.6854C65.1765 50.1049 62.8264 51.936 59.6632 56.0763C55.5597 61.4469 54.9077 66.7594 56.6478 68.7898C57.8081 70.1461 60.1034 70.035 62.9462 68.4908C70.4631 64.4023 78.7394 57.4341 78.5974 53.9701C78.5795 53.5286 78.4147 52.8756 77.203 52.3411L76.6876 52.1132C72.8544 50.4171 70.1851 49.2341 67.5896 49.6854ZM60.2154 71.7091C57.2936 72.217 55.7089 70.9006 55.0644 70.1489C52.3766 67.009 53.614 60.5573 58.0058 54.8063C65.5706 44.9091 69.8193 46.7913 77.5314 50.2052L78.0456 50.4333C80.1445 51.3598 80.6377 52.8236 80.6812 53.8872C80.8955 59.1127 70.5276 66.7409 63.9419 70.3203C62.511 71.0983 61.2755 71.5248 60.2154 71.7091Z" fill="#1C1A19"></path><path d="M24.6884 101.345C16.7698 97.8482 13.1226 95.9462 5.89898 105.399C-1.32247 114.855 1.32555 124.361 10.5084 119.365C19.6942 114.373 31.4807 104.347 24.6884 101.345Z" fill="#A048AA"></path><path d="M14.653 99.643C12.2399 100.063 9.89078 101.894 6.72731 106.034C2.62374 111.404 1.97168 116.717 3.71251 118.751C4.87175 120.104 7.16719 119.993 10.0098 118.448C17.5272 114.364 25.804 107.396 25.6619 103.932C25.6433 103.486 25.4792 102.837 24.2668 102.299L23.7502 102.071C19.9178 100.375 17.2485 99.1918 14.653 99.643ZM7.27913 121.667C4.3574 122.175 2.77385 120.862 2.12857 120.106C-0.558403 116.971 0.678745 110.519 5.07054 104.768C12.6344 94.8667 16.8818 96.7491 24.594 100.163L25.1101 100.395C27.209 101.321 27.7011 102.781 27.745 103.845C27.9596 109.074 17.5917 116.703 11.006 120.282C9.57538 121.06 8.33875 121.482 7.27913 121.667Z" fill="#1C1A19"></path><path d="M87.9057 85.7651C76.8719 86.0152 62.9025 99.5745 71.4436 104.068C79.9843 108.561 108.921 85.2785 87.9057 85.7651Z" fill="#F03C1F"></path><path d="M85.7704 87.0213C78.6482 88.2594 71.0586 94.4521 69.9736 99.0778C69.546 100.896 70.1858 102.229 71.9286 103.145C75.567 105.057 84.2896 100.831 89.8427 95.8437C93.1051 92.9099 94.835 90.0603 94.2497 88.5828C93.7623 87.3551 91.5181 86.7248 87.9292 86.8068C87.2198 86.8243 86.4973 86.8949 85.7704 87.0213ZM76.15 105.494C74.1769 105.837 72.3763 105.735 70.9584 104.991C68.3666 103.625 67.2956 101.355 67.9435 98.6009C69.326 92.7083 79.2431 84.9171 87.8808 84.7195C92.5364 84.6129 95.3315 85.6554 96.188 87.814C97.4922 91.1056 93.6455 95.2292 91.2362 97.3924C87.5079 100.746 81.2552 104.606 76.15 105.494Z" fill="#1C1A19"></path><path d="M6.84367 17.2894C-4.47009 25.3234 12.9368 33.6356 17.3466 26.2429C21.7557 18.8504 22.1873 6.39552 6.84367 17.2894Z" fill="#FCF6E7"></path><path d="M7.44725 18.1373C5.67985 19.393 3.68389 21.3573 4.21284 23.594C4.70039 25.6558 7.26398 27.4922 10.3092 27.962C13.061 28.3854 15.3567 27.5417 16.4519 25.7086C19.0237 21.396 19.7649 16.2119 18.0383 14.6195C16.4828 13.1837 12.6227 14.4644 7.44725 18.1373ZM13.3139 30.018C12.2859 30.1968 11.1673 30.2049 9.99163 30.024C6.07939 29.4171 2.86925 26.9734 2.18358 24.0738C1.74408 22.2153 2.09201 19.3859 6.23999 16.4378C12.5593 11.9521 17.0042 10.8237 19.4531 13.0864C22.2602 15.6807 21.0416 22.0825 18.2424 26.7776C17.1985 28.5256 15.4525 29.6462 13.3139 30.018Z" fill="#1C1A19"></path><path d="M11.7066 48.7527C1.36462 51.6811 -8.25653 64.0738 0.60671 63.8243C9.47003 63.5747 33.3096 42.6388 11.7066 48.7527Z" fill="#A048AA"></path><path d="M15.5598 48.917C14.6131 49.0816 13.4417 49.3487 11.9907 49.7576C4.54586 51.8648 -2.25194 59.0206 -1.82304 61.8208C-1.69342 62.6662 -0.446273 62.8093 0.576884 62.7796C0.875343 62.77 1.19431 62.7358 1.52893 62.6776C7.16002 61.7029 17.4954 53.9956 19.2693 49.9402C19.4928 49.4314 19.5071 49.1072 19.4217 49.0077C19.3922 48.9747 18.7967 48.3543 15.5598 48.917ZM1.80796 64.7418C1.39736 64.8132 1.00611 64.8558 0.636024 64.8651C-2.91745 64.9663 -3.72108 63.2008 -3.88425 62.1368C-4.56026 57.7241 3.73701 49.9266 11.4231 47.7521C16.7144 46.2522 19.7559 46.2188 20.9935 47.6379C21.4678 48.182 21.8848 49.168 21.179 50.7768C19.1417 55.4326 8.21333 63.6282 1.80796 64.7418Z" fill="#1C1A19"></path><path d="M67.8217 127.184C52.4472 125.258 42.6067 138.024 51.4143 141.63C60.2217 145.235 90.0548 129.966 67.8217 127.184Z" fill="#F03C1F"></path><path d="M60.8045 128.348C54.3853 129.464 50.0954 133.237 49.2775 136.356C48.7706 138.29 49.646 139.781 51.809 140.666C56.4713 142.574 68.4972 138.366 73.131 134.081C74.4467 132.861 75.0359 131.768 74.7909 131.006C74.5997 130.413 73.524 128.948 67.6918 128.218C65.2026 127.906 62.8905 127.986 60.8045 128.348ZM58.462 142.846C55.532 143.355 52.8635 143.35 51.0191 142.595C47.89 141.314 46.4853 138.785 47.2603 135.826C48.5669 130.849 56.4831 124.713 67.9509 126.149C73.1866 126.801 76.0738 128.183 76.7759 130.369C77.1359 131.487 77.0405 133.303 74.5467 135.608C71.0886 138.812 64.2644 141.837 58.462 142.846Z" fill="#1C1A19"></path><path d="M65.5028 211.515C64.5901 212.321 63.7578 213.695 65.1299 214.257C66.9797 215.014 67.1741 216.402 65.9759 216.201C64.752 215.996 63.7526 215.818 62.4801 216.736C61.1157 217.724 60.2732 216.464 61.1612 215.558C62.6318 214.053 62.8351 213.036 61.3468 212.238C63.1321 212.045 65.5028 211.515 65.5028 211.515Z" fill="#FCF6E7"></path><path d="M63.3445 213.001C63.355 213.042 63.3642 213.082 63.3723 213.124C63.3769 213.08 63.3824 213.037 63.3897 212.993C63.3749 212.996 63.3597 212.999 63.3445 213.001ZM63.4016 213.736C63.3454 214.34 63.0478 214.905 62.6719 215.409C63.2439 215.135 63.7823 215.023 64.3 214.998C63.6834 214.604 63.4729 214.078 63.4016 213.736ZM61.9087 218.11C61.1782 218.237 60.5577 217.969 60.1796 217.53C59.5262 216.772 59.6258 215.635 60.4163 214.828C61.3511 213.872 61.3259 213.525 61.3254 213.522C61.3253 213.522 61.2636 213.376 60.8537 213.156C60.4509 212.94 60.2361 212.486 60.3233 212.038C60.4107 211.589 60.7795 211.247 61.2346 211.201C62.9397 211.016 65.2527 210.503 65.2759 210.497C65.7343 210.395 66.2158 210.618 66.4317 211.041C66.6476 211.465 66.5494 211.982 66.1928 212.297C65.748 212.689 65.5179 213.078 65.4611 213.262C65.4783 213.271 65.4991 213.281 65.5246 213.291C67.1169 213.943 68.0176 215.141 67.7152 216.203C67.5331 216.843 66.8721 217.41 65.8038 217.23C64.6274 217.032 63.9977 216.926 63.0897 217.581C62.6792 217.879 62.2797 218.045 61.9087 218.11Z" fill="#1C1A19"></path><path d="M65.7625 211.775C73.7916 207.721 82.2874 194.98 78.7851 179.797C75.1113 163.87 61.9754 162.182 55.3121 163.34C49.0729 164.425 35.8334 171.367 39.3959 188.586C42.7025 204.563 54.9053 211.3 61.2453 212.662C63.5096 212.862 64.7343 212.296 65.7625 211.775Z" fill="#FAB20B"></path><path d="M61.4003 211.629C63.4169 211.794 64.4549 211.268 65.2912 210.844C65.2916 210.844 65.2916 210.844 65.2921 210.844C72.5755 207.166 81.262 195.175 77.7692 180.031C74.3488 165.204 62.1555 163.209 55.4902 164.368C52.5405 164.881 46.5713 167.185 42.9099 172.569C39.9776 176.881 39.1387 182.199 40.4161 188.375C43.6161 203.836 55.5024 210.333 61.4003 211.629ZM63.6439 213.623C62.9433 213.745 62.1316 213.788 61.1532 213.701C61.1102 213.697 61.068 213.691 61.0258 213.682C54.6906 212.32 41.8034 205.367 38.3743 188.798C36.9777 182.047 37.9234 176.192 41.1859 171.396C44.9757 165.823 51.0677 163.02 55.133 162.313C62.521 161.029 76.0299 163.216 79.8009 179.563C83.5469 195.805 74.1217 208.722 66.232 212.706C65.4952 213.079 64.6945 213.441 63.6439 213.623Z" fill="#1C1A19"></path><path d="M46.5273 172.205C47.918 172.885 48.0405 175.494 46.8025 178.032C45.5633 180.568 43.4337 182.073 42.0427 181.395C40.6518 180.717 40.5294 178.106 41.7645 175.571C43.0029 173.036 45.1348 171.526 46.5273 172.205Z" fill="#FCF6E7"></path><path d="M45.6115 173.101C44.8296 173.237 43.5868 174.216 42.701 176.029C41.6132 178.262 41.8549 180.144 42.4995 180.458C43.1443 180.772 44.7759 179.804 45.8655 177.574C46.9542 175.342 46.7142 173.459 46.0703 173.142C45.9487 173.084 45.7923 173.07 45.6115 173.101ZM43.3128 182.557C42.7108 182.662 42.123 182.595 41.5861 182.333C39.6159 181.372 39.2902 178.269 40.8272 175.114C42.3676 171.961 45.0138 170.308 46.9839 171.268C46.9843 171.268 46.9843 171.268 46.9848 171.268C48.9537 172.231 49.2783 175.335 47.7393 178.489C46.6201 180.78 44.916 182.278 43.3128 182.557Z" fill="#1C1A19"></path></svg>