<svg id="Layer_1" enable-background="new 0 0 249.403 206.773" height="512" viewBox="0 0 249.403 206.773" width="512" xmlns="http://www.w3.org/2000/svg"><g><path d="m123.316 184.618-5.094-10.261-2.646 4.63c-2.359 4.131-.924 9.395 3.207 11.756 3.107 1.775 6.855 1.4 9.527-.652-2.102-1.286-3.845-3.158-4.994-5.473z"/><path d="m154.325 145.915 8.578 2.971-5.174 43.99c-.555 4.723 2.828 9.006 7.553 9.561 4.723.555 9.006-2.826 9.563-7.549l6.658-56.621.192-.555-35.791-12.396-.537 1.55-11.16 19.525 9.225 18.584z"/><path d="m182.816 134.474 11.536-33.315c.082-.029.164-.051.242-.084l51.249-21.592c2.961-1.246 4.348-4.654 3.102-7.613-1.244-2.959-4.654-4.346-7.613-3.1l-47.673 20.086c-.092-.039-.182-.079-.277-.112l-24.822-8.597-23.741-43.339c-1.543-2.814-5.074-3.847-7.889-2.306-2.814 1.545-3.848 5.076-2.305 7.89l24.505 44.736-12.104 34.951z"/><ellipse cx="187.269" cy="63.746" rx="17.363" ry="17.361" transform="matrix(.327 -.945 .945 .327 65.749 219.842)"/><path d="m126.002 183.284c2.549 5.131 8.775 7.227 13.908 4.68 5.131-2.547 7.227-8.775 4.682-13.906l-30.531-61.504-.162-.647-44.262 11.039.469 1.878 4.234 72.184c.336 5.719 5.246 10.084 10.967 9.748 5.719-.334 10.084-5.244 9.748-10.965l-3.381-57.641 10.609-2.646z"/><path d="m112.84 107.66-10.227-40.995c.063-.083.131-.158.189-.244l37.5-55.5c2.166-3.203 1.322-7.555-1.881-9.721-3.203-2.164-7.555-1.321-9.721 1.882l-34.882 51.627c-.117.023-.234.04-.354.069l-30.697 7.656-52.46-28.103c-3.408-1.825-7.65-.543-9.477 2.864-1.824 3.409-.541 7.649 2.865 9.476l54.152 29.012 10.73 43.019z"/><ellipse cx="70.854" cy="33.579" rx="20.91" ry="20.912" transform="matrix(.97 -.242 .242 .97 -6.02 18.145)"/></g></svg>