<svg id="Layer_1" enable-background="new 0 0 500 500" viewBox="0 0 500 500" xmlns="http://www.w3.org/2000/svg"><path clip-rule="evenodd" d="m134.297 194.304c18.03 0 32.646 14.616 32.646 32.646s-14.616 32.646-32.646 32.646-32.646-14.616-32.646-32.646c-.001-18.03 14.616-32.646 32.646-32.646zm143.89-151.504c7.55 4.726 13.842 11.119 18.48 18.757l.683 1.125c.148.244.177.513.086.783s-.279.465-.544.569c-4.567 1.777-8.031 2.845-13.4 2.997-18.11.512-33.699-12.605-36.382-30.537l-.195-1.302c-.042-.282.035-.543.225-.756.19-.214.439-.321.724-.312 11.944.362 19.446 2.345 30.35 8.632zm-6.367 70.6-.007-.004c6.899-11.801 10.824-21.467 13.8-34.596.09-.395.407-.677.81-.72 6.319-.673 9.326-1.515 14.989-3.78.255-.102.514-.092.76.03s.411.322.484.587l.948 3.452c.003.009.005.017.007.026 7.977 32.726-11.795 67.023-44.134 76.474-8.771 2.564-18.045 3.134-27.046 1.507l-3.139-.567c-.397-.072-.691-.372-.754-.77s.123-.775.478-.966c6.443-3.471 10.902-5.997 17.401-11.235 10.136-8.169 18.705-18.284 25.403-29.438zm-72.636 23.804 2.06 2.434c.26.308.668.412 1.044.268s.61-.495.597-.897l-.096-3.187c-.589-19.528 5.219-39.216 14.932-56.04 6.21-10.755 13.04-19.126 22.039-27.442.298-.275.384-.69.219-1.061-2.577-5.816-3.343-8.84-4.207-14.887-.039-.271-.176-.489-.402-.641-.227-.153-.48-.197-.746-.131l-1.207.301c-16.861 4.214-31.158 15.445-39.724 30.514-12.766 22.459-11.245 50.996 5.491 70.769zm62.923-29.412.03.018c6.155-10.667 9.145-17.837 12.064-29.289.064-.252.028-.492-.107-.714s-.332-.364-.585-.423c-11.438-2.657-18.434-6.699-26.462-15.272-.177-.189-.398-.288-.657-.295-.259-.006-.485.082-.671.262l-.826.8c-15.471 14.988-26.604 35.904-29.915 57.126-1.519 9.736-1.32 17.061.183 26.447.046.285.201.512.451.658.25.145.524.169.794.068l1.261-.471c18.699-6.984 34.258-22.03 44.44-38.915zm177.887 167.96v.811c0 6.281-5.122 11.403-11.403 11.403h-26.651c-.021 0-.04 0-.061.002-14.067.925-20.598 12.828-20.181 33.798 0 .009.001.017.001.026l3.451 72.101c.012.26-.071.488-.248.678s-.398.29-.658.297c-42.005 1.07-80.81-5.46-112.721-28.36-.352-.252-.482-.697-.323-1.099l32.752-82.842c.012-.03.021-.055.029-.086 2.096-7.319 2.279-16.213-.008-27.141-.003-.015-.006-.027-.009-.041l-19.76-76.825c-1.542-5.994 1.994-12.137 7.951-13.816l1.218-.343c5.463-1.54 11.133 1.096 13.478 6.266l24.914 54.934c7.868 17.348 22.851 28.527 41.721 31.129l56.664 7.814c5.677.781 9.844 5.562 9.844 11.294zm-142.105 125.059c-.106-.224-.12-.452-.043-.687l.932-2.851c.155-.473-.09-.984-.555-1.16-6.747-2.558-13.348-5.575-19.767-9.106-.251-.138-.524-.156-.791-.05-.267.105-.454.304-.543.577l-4.638 14.189c-.077.235-.062.464.043.688l16.865 35.649c2.777 5.869 9.85 8.399 15.719 5.623 5.869-2.777 8.4-9.85 5.623-15.719zm80.237 8.502 12.158 41.438c1.828 6.23-1.774 12.823-8.004 14.651s-12.823-1.774-14.651-8.004l-14.176-48.315c-.089-.302-.029-.602.169-.847s.479-.367.793-.344c7.557.556 15.175.785 22.814.752.42-.001.778.265.897.669zm-1.943-226.742c-18.03 0-32.646 14.616-32.646 32.646s14.616 32.646 32.646 32.646 32.646-14.616 32.646-32.646c.001-18.03-14.616-32.646-32.646-32.646zm-300.598 63.411c-4.722-2.627-10.617-1.24-13.673 3.215-2.922 4.253-2.466 9.824 1.247 13.453l32.295 31.563c.006.005.01.01.016.015 13.611 12.698 18.474 23.678 18.84 33.774.001.022.001.04 0 .062l-.967 31.735c-.002.07-.011.131-.028.199l-23.341 92.663c-1.379 5.474 1.857 11.061 7.291 12.59l.803.226c4.772 1.342 9.699-.761 12.03-5.137l50.834-95.403c.23-.431.749-.611 1.196-.415l24.283 10.67c.356.157.569.496.556.885l-1.422 41.1c-.421 12.143 17.056 15.009 20.598 3.46l11.353-37.022c.002-.006.004-.011.006-.017 5.848-17.837 4.038-29.932-6.178-35.721-.031-.018-.059-.031-.092-.045l-32.309-13.874c-.402-.172-.625-.586-.55-1.017l10.929-62.125c.014-.076.033-.14.064-.211l32.681-74.965c1.323-3.036 1.311-6.151-.036-9.176-3.955-8.881-16.702-9.115-20.823-.158l-20.417 44.37c-11.26 23.705-42.27 50.305-69.252 35.295-11.98-6.662-23.957-13.326-35.934-19.989z" fill-rule="evenodd"/></svg>