<svg id="donate-toys-children-ico" enable-background="new 0 0 300 300" height="512" viewBox="0 0 300 300" width="512" xmlns="http://www.w3.org/2000/svg"><g><path d="m56 95.068c2.209 0 4-1.791 4-4v-8c0-2.209-1.791-4-4-4s-4 1.791-4 4v8c0 2.209 1.791 4 4 4z"/><path d="m56 103.068c-2.209 0-4 1.791-4 4v8c0 2.209 1.791 4 4 4s4-1.791 4-4v-8c0-2.209-1.791-4-4-4z"/><path d="m48 95.068h-8c-2.209 0-4 1.791-4 4s1.791 4 4 4h8c2.209 0 4-1.791 4-4s-1.791-4-4-4z"/><path d="m76 99.068c0-2.209-1.791-4-4-4h-8c-2.209 0-4 1.791-4 4s1.791 4 4 4h8c2.209 0 4-1.791 4-4z"/><path d="m250 47.068c-7.719 0-14 6.281-14 14s6.281 14 14 14 14-6.281 14-14-6.281-14-14-14zm0 20c-3.309 0-6-2.691-6-6s2.691-6 6-6 6 2.691 6 6-2.691 6-6 6z"/><path d="m248.328 105.182c-2.362 0-4.276 1.915-4.276 4.276 0 2.362 1.914 4.277 4.276 4.277s4.276-1.915 4.276-4.277c.001-2.361-1.914-4.276-4.276-4.276z"/><path d="m64.328 53.736c2.362 0 4.276-1.915 4.276-4.277s-1.914-4.276-4.276-4.276-4.276 1.915-4.276 4.276c0 2.362 1.914 4.277 4.276 4.277z"/><path d="m243.42 159.47c0-14.416-11.729-26.145-26.146-26.145-6.494 0-12.625 2.408-17.391 6.727-.698-.716-1.469-1.352-2.198-2.035 5.481-8.254 8.692-18.14 8.692-28.769 0-2.932-.27-5.916-.803-8.914 10.879-2.781 18.863-12.652 18.863-24.195 0-13.822-11.246-25.068-25.07-25.068-8.816 0-16.754 4.533-21.264 11.854-14.781-7.656-32.988-7.656-47.77 0-4.51-7.32-12.447-11.854-21.264-11.854-13.823-.001-25.069 11.245-25.069 25.067 0 11.543 7.984 21.414 18.863 24.195-.535 3.002-.805 5.984-.805 8.914 0 10.517 3.154 20.3 8.53 28.501-.827.765-1.683 1.494-2.471 2.304-4.764-4.318-10.896-6.727-17.391-6.727-14.418 0-26.146 11.729-26.146 26.145 0 14.139 11.281 25.693 25.316 26.133.027 2.096.19 4.187.418 6.264-.744.226-1.488.457-2.22.752-14.992 6.035-21.752 24.457-15.066 41.066 3.205 7.967 9.002 14.357 16.322 18 4.189 2.084 8.592 3.133 12.947 3.133 3.42 0 6.811-.646 10.043-1.947 5.351-2.154 9.758-5.916 12.855-10.832 8.893 4.474 18.783 6.851 28.805 6.851 10.024 0 19.913-2.378 28.804-6.853 3.097 4.917 7.504 8.679 12.856 10.833 3.232 1.301 6.621 1.947 10.043 1.947 4.354 0 8.76-1.049 12.947-3.133 7.32-3.643 13.117-10.033 16.322-18v.002c6.686-16.611-.074-35.033-15.068-41.068-.732-.295-1.475-.526-2.219-.751.228-2.077.391-4.168.418-6.264 14.036-.44 25.317-11.994 25.317-26.133zm-132.5-64.74c-.697-.969-1.789-1.574-2.98-1.652-8.938-.598-15.94-8.038-15.94-16.94 0-9.412 7.658-17.068 17.07-17.068 7.049 0 13.275 4.27 15.859 10.875.434 1.109 1.34 1.969 2.473 2.342 1.129.373 2.373.221 3.381-.412 14.125-8.879 32.746-8.879 46.871 0 1.01.635 2.254.789 3.381.412 1.133-.373 2.039-1.232 2.473-2.342 2.584-6.605 8.811-10.875 15.859-10.875 9.412 0 17.07 7.656 17.07 17.068 0 8.902-7.002 16.342-15.939 16.939-1.191.078-2.283.684-2.98 1.652-.697.967-.926 2.195-.625 3.348.984 3.77 1.484 7.527 1.484 11.17 0 24.35-19.809 44.16-44.158 44.16s-44.16-19.811-44.16-44.16c0-3.637.5-7.395 1.486-11.17.301-1.152.072-2.38-.625-3.347zm-1.568 150.718c-5.195 2.086-11.033 1.76-16.439-.926-5.564-2.768-9.99-7.678-12.463-13.822v-.002c-5.039-12.518-.27-26.271 10.631-30.658 2.285-.918 4.658-1.355 7.031-1.355 8.953 0 17.893 6.209 21.875 16.105 2.473 6.145 2.682 12.752.584 18.602-2.036 5.683-6.02 9.965-11.219 12.056zm19.182-10.773c2.25-7.332 1.885-15.388-1.126-22.873-5.213-12.952-17.083-20.999-29.168-21.072-.208-1.974-.349-3.96-.349-5.95 0-.758.053-1.502.104-2.248l.066-1.023c.068-1.203-.445-2.369-1.336-3.18-.893-.814-2.146-1.176-3.328-.992-.877.133-1.754.279-2.67.279-10.006 0-18.146-8.141-18.146-18.146s8.141-18.145 18.146-18.145c5.57 0 10.77 2.582 14.268 7.082.738.953 1.867 1.52 3.072 1.547 1.158-.014 2.355-.494 3.137-1.412 1.338-1.577 2.792-3.052 4.292-4.473 9.554 10.614 23.351 17.338 38.724 17.338 15.266 0 28.978-6.634 38.525-17.122 1.418 1.358 2.789 2.765 4.053 4.255.777.92 1.938 1.398 3.137 1.414 1.205-.027 2.334-.594 3.072-1.547 3.498-4.5 8.697-7.082 14.268-7.082 10.006 0 18.146 8.139 18.146 18.145.002 10.922-9.559 19.588-20.889 17.855-1.197-.184-2.4.186-3.291.998s-1.369 1.982-1.301 3.186l.066 1.023c.051.746.104 1.49.104 2.248 0 1.99-.142 3.977-.349 5.95-12.082.075-23.956 8.121-29.168 21.071-3.011 7.485-3.376 15.541-1.126 22.873-15.724 7.984-35.205 7.986-50.933.001zm99.017-3.977v.002c-2.473 6.145-6.898 11.055-12.463 13.822-5.404 2.684-11.248 3.016-16.439.926-5.199-2.092-9.184-6.373-11.219-12.057-2.098-5.85-1.889-12.457.584-18.602 3.982-9.898 12.92-16.105 21.875-16.105 2.373 0 4.748.438 7.029 1.355 10.902 4.388 15.672 18.142 10.633 30.659z"/><path d="m164.492 167.417c-3.789 0-7.459 1.158-10.625 3.314-3.164-2.156-6.836-3.314-10.625-3.314-10.992 0-19.936 9.623-19.936 21.451 0 14.23 27.92 35.018 28.201 35.225.703.514 1.531.77 2.359.77s1.656-.256 2.359-.77c.281-.205 28.203-20.99 28.203-35.225.002-11.828-8.942-21.451-19.936-21.451zm-10.625 48.428c-10.105-7.922-22.561-20.914-22.561-26.977 0-7.418 5.354-13.451 11.936-13.451 2.863 0 5.641 1.18 7.822 3.324 1.557 1.529 4.053 1.529 5.605 0 2.184-2.143 4.961-3.324 7.822-3.324 6.582 0 11.938 6.033 11.938 13.451.001 6.065-12.454 19.057-22.562 26.977z"/><circle cx="170" cy="105.068" r="6"/><circle cx="138" cy="105.068" r="6"/><path d="m148 123.068h4v8c0 2.209 1.791 4 4 4s4-1.791 4-4v-8h4c2.209 0 4-1.791 4-4s-1.791-4-4-4h-16c-2.209 0-4 1.791-4 4s1.791 4 4 4z"/></g></svg>