<?xml version="1.0" encoding="UTF-8"?>
<svg xmlns="http://www.w3.org/2000/svg" id="Icons" viewBox="0 0 60 60" width="512" height="512"><path d="M57.788,28.3A25.051,25.051,0,0,0,26.95.709,24.725,24.725,0,0,0,8,25.032v.339a11.637,11.637,0,0,1-1.757,6.184,46.846,46.846,0,0,1-3.517,4.993,3.193,3.193,0,0,0,1.52,5.079,16.991,16.991,0,0,0,2.715.318,5.68,5.68,0,0,1-.506,2.07,1.939,1.939,0,0,0,.387,2.271,7.853,7.853,0,0,0,.665.585,4.584,4.584,0,0,0-.316.8A1.991,1.991,0,0,0,8.445,50.1.815.815,0,0,1,9,51v3a4,4,0,0,0,4,4,12.139,12.139,0,0,0,4.268-.783l5.373-2.335a8.924,8.924,0,0,1,.331,2.231,3.008,3.008,0,0,0,3,2.887H49.558A3,3,0,0,0,52.5,56.412L50.008,43.939a1.038,1.038,0,0,1,.321-.946A24.846,24.846,0,0,0,57.788,28.3ZM48.047,44.331l2.491,12.474a1,1,0,0,1-.98,1.2H25.969a1.011,1.011,0,0,1-1-.979,10.456,10.456,0,0,0-.487-2.921c1.524-.595,3.89-1.416,3.943-1.435a6.024,6.024,0,0,0,3.327-3.148l1.383-3.111a1,1,0,1,0-1.828-.812L29.926,48.7a3.989,3.989,0,0,1-2.184,2.082c-.152.054-3.735,1.3-4.99,1.868h0l-6.231,2.709A10.094,10.094,0,0,1,13,56a2,2,0,0,1-2-2V51a2.742,2.742,0,0,0-1.889-2.762,2.568,2.568,0,0,1,.509-.963,1,1,0,0,0-.349-1.651,3.787,3.787,0,0,1-1.029-.71A8.6,8.6,0,0,0,9,41a1,1,0,0,0-.954-1,26.64,26.64,0,0,1-3.211-.286,1.17,1.17,0,0,1-.785-.789,1.2,1.2,0,0,1,.22-1.11,48.241,48.241,0,0,0,3.668-5.2A13.634,13.634,0,0,0,10,25.371v-.34A22.732,22.732,0,0,1,27.408,2.656,23,23,0,0,1,48.945,41.549,3.029,3.029,0,0,0,48.047,44.331Z"/><path d="M33,12A11,11,0,1,0,44,23,11.013,11.013,0,0,0,33,12Zm0,20a9,9,0,1,1,9-9A9.01,9.01,0,0,1,33,32Z"/><path d="M50.923,24.558a15.7,15.7,0,0,0,0-3.111,2.006,2.006,0,0,0-1.247-1.65l-1.4-.559a15.577,15.577,0,0,0-1.819-4.376l.594-1.392a1.964,1.964,0,0,0-.3-2.064,17.777,17.777,0,0,0-2.163-2.164,1.965,1.965,0,0,0-2.064-.3l-1.395.6a15.575,15.575,0,0,0-4.37-1.816L36.2,6.314a2,2,0,0,0-1.655-1.243,16.76,16.76,0,0,0-3.089,0A2.006,2.006,0,0,0,29.8,6.319l-.561,1.4a15.575,15.575,0,0,0-4.37,1.816l-1.394-.595a1.961,1.961,0,0,0-2.065.3,17.819,17.819,0,0,0-2.162,2.163,1.965,1.965,0,0,0-.3,2.064l.6,1.393a15.577,15.577,0,0,0-1.819,4.376l-1.4.561a2,2,0,0,0-1.242,1.643,15.7,15.7,0,0,0,0,3.1A2.008,2.008,0,0,0,16.324,26.2l1.4.559a15.577,15.577,0,0,0,1.819,4.376l-.594,1.392a1.964,1.964,0,0,0,.3,2.064,17.853,17.853,0,0,0,2.163,2.164,1.965,1.965,0,0,0,2.064.3l1.395-.6a15.575,15.575,0,0,0,4.37,1.816l.563,1.409a2,2,0,0,0,1.655,1.243c.535.048,1.07.071,1.591.071a14.944,14.944,0,0,0,1.5-.071A2.006,2.006,0,0,0,36.2,39.681l.561-1.4a15.575,15.575,0,0,0,4.37-1.816l1.394.595a1.959,1.959,0,0,0,2.064-.3A17.766,17.766,0,0,0,46.754,34.6a1.965,1.965,0,0,0,.3-2.064l-.595-1.393a15.577,15.577,0,0,0,1.819-4.376l1.4-.561A2,2,0,0,0,50.923,24.558Zm-1.989-.212-1.886.754a1,1,0,0,0-.608.723A13.587,13.587,0,0,1,44.5,30.5a1,1,0,0,0-.083.94l.812,1.867a15.64,15.64,0,0,1-1.911,1.91l-1.877-.8a1,1,0,0,0-.94.083,13.6,13.6,0,0,1-4.672,1.942,1,1,0,0,0-.723.608l-.746,1.89a14.572,14.572,0,0,1-2.7,0l-.756-1.89a1,1,0,0,0-.723-.608A13.6,13.6,0,0,1,25.5,34.5a1,1,0,0,0-.94-.083l-1.868.814a15.663,15.663,0,0,1-1.909-1.913l.8-1.876a1,1,0,0,0-.083-.94,13.587,13.587,0,0,1-1.945-4.677,1,1,0,0,0-.608-.723l-1.885-.744a13.629,13.629,0,0,1,0-2.7l1.886-.754a1,1,0,0,0,.608-.723A13.587,13.587,0,0,1,21.505,15.5a1,1,0,0,0,.083-.94l-.812-1.867a15.637,15.637,0,0,1,1.911-1.91l1.877.8a1,1,0,0,0,.94-.083A13.6,13.6,0,0,1,30.176,9.56a1,1,0,0,0,.723-.608l.746-1.889a14.569,14.569,0,0,1,2.7,0l.756,1.89a1,1,0,0,0,.723.608A13.6,13.6,0,0,1,40.5,11.5a1,1,0,0,0,.94.083l1.868-.814a15.661,15.661,0,0,1,1.909,1.913l-.8,1.876a1,1,0,0,0,.083.94,13.587,13.587,0,0,1,1.945,4.677,1,1,0,0,0,.608.723l1.887.758A13.717,13.717,0,0,1,48.934,24.346Z"/><path d="M33.707,17.293a1,1,0,0,0-1.414,0l-3,3a1,1,0,0,0,1.414,1.414L32,20.414V28a1,1,0,0,0,2,0V20.414l1.293,1.293a1,1,0,0,0,1.414-1.414Z"/></svg>
