<svg id="Layer_1" enable-background="new 0 0 103 103" height="512" viewBox="0 0 103 103" width="512" xmlns="http://www.w3.org/2000/svg"><g><path d="m13.0854492 30.2705078c2.7089844 0 4.9130859-2.1992188 4.9130859-4.9023438 0-2.7089844-2.2041016-4.9130859-4.9130859-4.9130859-2.7036133 0-4.902832 2.2041016-4.902832 4.9130859 0 2.7031251 2.1992187 4.9023438 4.902832 4.9023438zm0-7.8154297c1.6064453 0 2.9130859 1.3066406 2.9130859 2.9130859 0 1.6005859-1.3066406 2.9023438-2.9130859 2.9023438-1.6005859 0-2.902832-1.3017578-2.902832-2.9023438 0-1.6064452 1.3022461-2.9130859 2.902832-2.9130859z"/><path d="m84.1748047 43.3652344c0 2.7041016 2.1992188 4.9033203 4.9033203 4.9033203 2.7089844 0 4.9121094-2.1992188 4.9121094-4.9033203 0-2.7089844-2.203125-4.9121094-4.9121094-4.9121094-2.7041016 0-4.9033203 2.203125-4.9033203 4.9121094zm4.9033203-2.9121094c1.6054688 0 2.9121094 1.3066406 2.9121094 2.9121094 0 1.6005859-1.3066406 2.9033203-2.9121094 2.9033203-1.6005859 0-2.9033203-1.3027344-2.9033203-2.9033203 0-1.6054688 1.3027344-2.9121094 2.9033203-2.9121094z"/><path d="m90.0693359 13.4111328c.2275391 0 .4560547-.0771484.6435547-.2353516.421875-.3554688.4755859-.9863281.1201172-1.4091797l-1.2607422-1.4960938c-.3564453-.4208984-.9863281-.4765625-1.4091797-.1201172-.421875.3554688-.4755859.9863281-.1201172 1.4091797l1.2607422 1.4960938c.1982422.2343751.4804688.3554688.765625.3554688z"/><path d="m94.9228516 18.1738281c.421875-.3554688.4765625-.9863281.1201172-1.4091797l-1.2607422-1.4970703c-.3544922-.421875-.9853516-.4785156-1.4091797-.1201172-.421875.3554688-.4765625.9863281-.1201172 1.4091797l1.2607422 1.4970703c.1972656.234375.4804688.3554688.765625.3554688.2265625 0 .4560547-.0771484.6435547-.2353516z"/><path d="m94.1455078 10.6621094-1.4960938 1.2597656c-.421875.3554688-.4765625.9863281-.1201172 1.4091797.1972656.234375.4804688.3554688.765625.3554688.2265625 0 .4560547-.0771484.6435547-.2353516l1.4960938-1.2597656c.421875-.3554688.4765625-.9863281.1201172-1.4091797-.3544922-.421875-.9863281-.4785157-1.4091797-.1201172z"/><path d="m87.53125 17.5410156c.1972656.234375.4804688.3554688.765625.3554688.2265625 0 .4560547-.0771484.6435547-.2353516l1.4960938-1.2597656c.421875-.3554688.4765625-.9863281.1201172-1.4091797-.3544922-.4208984-.9863281-.4785156-1.4091797-.1201172l-1.4960938 1.2597656c-.421875.3554688-.4765625.9863282-.1201172 1.4091797z"/><path d="m17.8139648 40.9658203-1.2607421-1.4970703c-.3569336-.4228516-.9873047-.4765625-1.4091797-.1201172-.4223633.3554688-.4765625.9863281-.1210938 1.4091797l1.2607422 1.4970703c.1982422.234375.480957.3554688.765625.3554688.2275391 0 .4560547-.0771484.6435547-.2353516.4223633-.3554687.4765625-.9863281.1210937-1.4091797z"/><path d="m19.3540039 44.3466797c-.4223633.3554688-.4765625.9863281-.1206055 1.4091797l1.2602539 1.4960938c.1977539.234375.4804688.3554688.7651367.3554688.2275391 0 .4560547-.0771484.6435547-.2353516.4223633-.3554688.4765625-.9863281.1206055-1.4091797l-1.2602539-1.4960938c-.3564453-.4228516-.9868164-.4765625-1.4086914-.1201172z"/><path d="m22.5356445 39.9814453c-.3569336-.421875-.9882813-.4775391-1.4091797-.1201172l-1.4960938 1.2597656c-.4223633.3554688-.4765625.9863281-.1210938 1.4091797.1982422.234375.480957.3554688.765625.3554688.2275391 0 .4560547-.0771484.6435547-.2353516l1.4960938-1.2597656c.4223634-.3554687.4765626-.9863281.1210938-1.4091797z"/><path d="m16.128418 44.0712891-1.4960938 1.2597656c-.4223633.3554688-.4765625.9863281-.1210938 1.4091797.1982422.234375.480957.3554688.765625.3554688.2275391 0 .4560547-.0771484.6435547-.2353516l1.4960938-1.2597656c.4223633-.3554688.4765625-.9863281.1210938-1.4091797-.3574219-.421875-.987793-.4775391-1.4091797-.1201172z"/><path d="m4.0893555 93.4453125c-.5522461 0-.9604492.4472656-.9604492 1s.4868164 1 1.0390625 1 1-.4472656 1-1-.4477539-1-1-1z"/><path d="m98.8710938 93.4453125h-.4326172c-.5527344 0-1 .4472656-1 1s.4472656 1 1 1h.4326172c.5527344 0 1-.4472656 1-1s-.4472657-1-1-1z"/><path d="m94.9902344 93.4453125h-2.9196167c1.2675781-1.253418 2.0553589-2.9909668 2.0553589-4.9101563v-10.3984374c0-3.8105469-3.1005859-6.9111328-6.9111328-6.9111328s-6.9101563 3.1005859-6.9101563 6.9111328v2.3945312h-3.7558594c-1.2363281 0-2.2636719-.9462891-2.3916016-2.2060547-.2949219-2.7558594-.7949219-5.7558594-1.4091797-8.4462891-.09375-.4150391.0048828-.8447266.2724609-1.1806641.2724609-.3417969.6806641-.5380859 1.1181641-.5380859h4.7587891c2.3300781 0 4.5507813-1.0019531 6.0917892-2.7490234 1.537117-1.7421875 2.2509842-4.0751953 1.958992-6.4013672-.5048828-4.0322266-4.0683594-7.0732422-8.2890625-7.0732422h-5.6588135c2.8155518-4.0698242 4.4703369-9.0009766 4.4703369-14.3134766 0-2.4665527-.3621216-4.848877-1.0251465-7.1037598 4.0170898-1.9699707 6.7956543-6.0825195 6.7956543-10.8513184 0-6.6796875-5.4335938-12.1132813-12.1132813-12.1132813-4.5545044 0-8.5093994 2.5324707-10.5765991 6.2536621-2.6032104-.9106445-5.3970947-1.4118652-8.3071899-1.4118652-2.9033203 0-5.6907959.4990234-8.2888184 1.4057617-2.0692749-3.7202148-6.0327759-6.2475586-10.583252-6.2475586-6.6850586 0-12.1240234 5.4335938-12.1240234 12.1132813 0 4.7666016 2.7783813 8.876709 6.7971802 10.8442383-.6643066 2.2568359-1.0271606 4.6416016-1.0271606 7.1108398 0 5.3125 1.6547241 10.2436523 4.4702759 14.3134766h-5.9004517c-2.1582031 0-4.1962891.8427734-5.7436523 2.3789063-1.6567383 1.6689453-2.5141602 3.96875-2.3530273 6.3076172.2910156 4.2265625 3.9624023 7.5371094 8.3579102 7.5371094h5.0986328c.8463745 0 1.5388794.7460938 1.4077148 1.6289063-.6484375 4.3339844-1.0136719 7.4414063-1.0849609 9.2373047-.0488281 1.3193359-1.105957 2.3535156-2.4057617 2.3535156h-6.2084961v-3.2431641c0-3.8105469-3.1000977-6.9111328-6.9106445-6.9111328s-6.9106445 3.1005859-6.9106445 6.9111328v10.3984375c0 1.9191895.7876587 3.6567383 2.0551147 4.9101563h-3.8432007c-.5522461 0-1 .4472656-1 1s.4477539 1 1 1h87.9433594c.5527344 0 1-.4472656 1-1s-.4472656-1-1-1zm-23.8623047-83.890625c5.5761719 0 10.1132813 4.5371094 10.1132813 10.1132813 0 3.8884277-2.2106323 7.2612305-5.4378662 8.9504395-.3633423-.9475098-.78125-1.8679199-1.2518311-2.7565918 2.1898193-1.2099609 3.6877365-3.5195313 3.6877365-6.1938477 0-3.9208984-3.1904221-7.1113281-7.1122971-7.1113281-2.5498657 0-4.7478638 1.3691406-5.9976196 3.3901367-.8571777-.5114746-1.7481079-.9711914-2.6668091-1.3798828 1.7555542-2.9824219 4.9569702-5.0122071 8.6654053-5.0122071zm2.4102783 14.5683594c-1.7662964-2.776123-4.0585938-5.1838379-6.7377319-7.0839844.887146-1.4780273 2.4744873-2.4824219 4.3264771-2.4824219 2.8193359 0 5.1122971 2.2929688 5.1122971 5.1113281-.0000001 1.9401856-1.1007615 3.5991211-2.7010423 4.4550782zm-50.2901611-4.4550781c0-5.5761719 4.5415039-10.1132813 10.1240234-10.1132813 3.7041016 0 6.9193726 2.0209961 8.6792603 5.0009766-.9202271.4082031-1.8123779.8676758-2.6710205 1.3789063-1.2537842-2.017334-3.463562-3.3779297-6.008728-3.3779297-3.9267578 0-7.121582 3.1904297-7.121582 7.1123047 0 2.6730957 1.4926147 4.9902344 3.6837158 6.199707-.4689941.8864746-.8855591 1.8041992-1.2479858 2.7490234-3.2278444-1.6904297-5.4376832-5.0634766-5.4376832-8.949707zm14.4490356-2.635254c-2.6844482 1.9023438-4.9810181 4.3139648-6.7496948 7.0952148-1.5986328-.8591308-2.6973877-2.5212401-2.6973877-4.4589843 0-2.8193359 2.2973633-5.1123047 5.121582-5.1123047 1.8474732 0 3.4387818.9990235 4.3255005 2.4760742zm-8.6790161 20.5903321c0-12.8076172 10.4189453-23.2265625 23.2260742-23.2265625 10.5076904 0 19.4025879 7.0151367 22.2600708 16.6064453.0004883.0905762.0100708.1806641.0080566.2712402.0214233-.0061035.041748-.0148926.0631104-.0212402.5787354 2.0258789.8953247 4.1611328.8953247 6.3701172 0 12.8066406-10.4189453 23.2255859-23.2265625 23.2255859-12.8071289 0-23.2260742-10.4189453-23.2260742-23.2255859zm33.3737183 23.0871582c2.7599487 2.9973145 4.4910278 7.1855469 4.4910278 11.8317871 0 9.0742188-6.5664063 16.4570313-14.6386719 16.4570313-8.0712891 0-14.6381836-7.3828125-14.6381836-16.4570313 0-4.6494141 1.7371216-8.833252 4.5026855-11.826416 3.104187 1.3679199 6.531311 2.1330566 10.135498 2.1330566 3.6089479 0 7.0402223-.767334 10.1476442-2.1384277zm-46.6461792 32.7351074c-2.7075195 0-4.9106445-2.203125-4.9106445-4.9101563v-10.3984374c0-2.7080078 2.203125-4.9111328 4.9106445-4.9111328s4.9106445 2.203125 4.9106445 4.9111328v10.3984375c0 2.7070312-2.203125 4.9101562-4.9106445 4.9101562zm4.8598633-.0039062c1.2650757-1.2529297 2.0507813-2.9892578 2.0507813-4.90625v-5.1552734h6.2084961c2.3803711 0 4.3149414-1.8798828 4.4042969-4.2763672.0683594-1.7216797.4262695-4.7558594 1.0639648-9.0195313.3093262-2.0629883-1.2935791-3.9238281-3.3852539-3.9238281h-5.0986328c-3.3486328 0-6.1435547-2.4921875-6.362793-5.6738281-.121582-1.765625.5263672-3.5009766 1.7724609-4.7568359 1.1645508-1.15625 2.7021484-1.7929688 4.3291016-1.7929688h7.4378662c2.0238037 2.3803711 4.4768677 4.3847656 7.2440796 5.8835449-2.869751 3.3112793-4.6638794 7.7727051-4.6638794 12.7219238 0 10.1767578 7.4638672 18.4570313 16.6381836 18.4570313 9.1748047 0 16.6386719-8.2802734 16.6386719-18.4570313 0-4.9445801-1.7815552-9.4160156-4.6438599-12.7324219 2.7592163-1.4975586 5.2051392-3.498291 7.2240601-5.8730469h7.196167c3.2138672 0 5.9248047 2.2880859 6.3046875 5.3222656.2236328 1.7832031-.2998047 3.4980469-1.4736328 4.8291016-1.1621094 1.3173828-2.8359375 2.0722656-4.5927734 2.0722656h-4.7587891c-1.0498047 0-2.0273438.4707031-2.6816406 1.2910156-.6494141.8134766-.8886719 1.8603516-.6582031 2.8720703.5966797 2.6171875 1.0830078 5.5351563 1.3691406 8.2089844.2304686 2.2802735 2.1142577 3.9990235 4.3808592 3.9990235h3.7558594v6.0039063c0 1.9169922.7855835 3.6533203 2.0505371 4.90625zm66.609375.0039062c-2.7070313 0-4.9101563-2.203125-4.9101563-4.9101563v-10.3984374c0-2.7080078 2.203125-4.9111328 4.9101563-4.9111328 2.7080078 0 4.9111328 2.203125 4.9111328 4.9111328v10.3984375c0 2.7070312-2.203125 4.9101562-4.9111328 4.9101562z"/><path d="m26.6992188 55.6328125c-2.4345703 0-4.4155273 1.9814453-4.4155273 4.4160156s1.980957 4.4150391 4.4155273 4.4150391c2.4423828 0 4.4291992-1.9804688 4.4291992-4.4150391s-1.9868164-4.4160156-4.4291992-4.4160156zm0 6.8310547c-1.3320313 0-2.4155273-1.0830078-2.4155273-2.4150391s1.0834961-2.4160156 2.4155273-2.4160156c1.3393555 0 2.4291992 1.0839844 2.4291992 2.4160156s-1.0898438 2.4150391-2.4291992 2.4150391z"/><path d="m77.7753906 64.4638672c2.4423828 0 4.4296875-1.9804688 4.4296875-4.4150391s-1.9873047-4.4160156-4.4296875-4.4160156c-2.4345703 0-4.4150391 1.9814453-4.4150391 4.4160156s1.9804688 4.4150391 4.4150391 4.4150391zm0-6.8310547c1.3398438 0 2.4296875 1.0839844 2.4296875 2.4160156s-1.0898438 2.4150391-2.4296875 2.4150391c-1.3320313 0-2.4150391-1.0830078-2.4150391-2.4150391s1.0830079-2.4160156 2.4150391-2.4160156z"/><path d="m39.3461914 41.4882813c0 7.1123047 5.7861328 12.8984375 12.8979492 12.8984375 7.1123047 0 12.8984375-5.7861328 12.8984375-12.8984375 0-7.1044922-5.7861328-12.8847656-12.8984375-12.8847656-7.1118164-.0000001-12.8979492 5.7802734-12.8979492 12.8847656zm12.8979492-10.8847657c6.0097656 0 10.8984375 4.8828125 10.8984375 10.8847656 0 6.0097656-4.8886719 10.8984375-10.8984375 10.8984375-6.0092773 0-10.8979492-4.8886719-10.8979492-10.8984375 0-6.0019531 4.8886719-10.8847656 10.8979492-10.8847656z"/><path d="m41.9282227 29.2236328c2.3095703 0 4.1889648-1.8789063 4.1889648-4.1894531 0-2.3027344-1.8793945-4.1757813-4.1889648-4.1757813s-4.1889725 1.8730469-4.1889725 4.1757813c0 2.3105469 1.8794021 4.1894531 4.1889725 4.1894531zm0-6.3652344c1.2070313 0 2.1889648.9755859 2.1889648 2.1757813 0 1.2070313-.9819336 2.1894531-2.1889648 2.1894531s-2.1889725-.9824219-2.1889725-2.1894531c0-1.2001953.9819412-2.1757813 2.1889725-2.1757813z"/><path d="m62.5605469 29.2236328c2.3105469 0 4.1894531-1.8789063 4.1894531-4.1894531 0-2.3027344-1.8789063-4.1757813-4.1894531-4.1757813-2.3095703 0-4.1884766 1.8730469-4.1884766 4.1757813 0 2.3105469 1.8789063 4.1894531 4.1884766 4.1894531zm0-6.3652344c1.2070313 0 2.1894531.9755859 2.1894531 2.1757813 0 1.2070313-.9824219 2.1894531-2.1894531 2.1894531s-2.1884766-.9824219-2.1884766-2.1894531c0-1.2001953.9814453-2.1757813 2.1884766-2.1757813z"/><path d="m52.25 42.2373047c2.4101563 0 4.3710938-1.9599609 4.3710938-4.3701172 0-2.4179688-1.9609375-4.3857422-4.3710938-4.3857422-2.418457 0-4.3857498 1.9677734-4.3857498 4.3857422 0 2.4101563 1.9672928 4.3701172 4.3857498 4.3701172zm0-6.7558594c1.3076172 0 2.3710938 1.0703125 2.3710938 2.3857422 0 1.3066406-1.0634766 2.3701172-2.3710938 2.3701172-1.3154297 0-2.3857498-1.0634766-2.3857498-2.3701172 0-1.3154297 1.0703201-2.3857422 2.3857498-2.3857422z"/></g></svg>